<svg fill="currentColor" viewBox="0 0 24 24" xmlns="http://www.w3.org/2000/svg">
  <path d="M20.317 4.369a19.791 19.791 0 0 0-4.885-1.515.074.074 0 0 0-.079.037c-.21.352-.416.713-.612 1.078a18.093 18.093 0 0 0-5.484 0 18.67 18.67 0 0 0-.612-1.078.077.077 0 0 0-.079-.037A19.715 19.715 0 0 0 3.678 4.37a.07.07 0 0 0-.033.055c-1.42 5.664-1.418 11.386.002 17.05.021.042.06.069.104.069.782.186 1.57.345 2.358.476a.076.076 0 0 0 .087-.045c.422-.573.818-1.178 1.19-1.822a.076.076 0 0 0-.044-.105c-.63-.243-1.225-.514-1.786-.82a10.27 10.27 0 0 1-1.652-1.448.074.074 0 0 1 .004-.117c.058-.044.113-.085.17-.123a.077.077 0 0 1 .098-.01c1.55.733 3.253 1.196 5.04 1.196s3.49-.463 5.04-1.196a.077.077 0 0 1 .098.01c.056.038.112.079.17.123a.074.074 0 0 1 .004.117 10.296 10.296 0 0 1-1.652 1.448c-.56.308-1.156.577-1.786.82a.076.076 0 0 0-.044.105c.373.644.768 1.249 1.19 1.822a.076.076 0 0 0 .087.045c.789-.13 1.576-.29 2.358-.476a.07.07 0 0 0 .104-.069c1.423-5.664 1.425-11.387.002-17.05a.073.073 0 0 0-.033-.055ZM8.02 15.33c-1.183 0-2.144-.97-2.144-2.16s.96-2.16 2.144-2.16c1.184 0 2.144.97 2.144 2.16s-.96 2.16-2.144 2.16Zm7.954 0c-1.183 0-2.144-.97-2.144-2.16s.96-2.16 2.144-2.16c1.184 0 2.144.97 2.144 2.16s-.96 2.16-2.144 2.16Z"/>
</svg> 